<svg width="100" height="40" viewBox="0 0 465.301 93.201" xmlns="http://www.w3.org/2000/svg"><g id="svgGroup" stroke-linecap="round" fill-rule="evenodd" font-size="9pt" stroke="#ffffff" stroke-width="0.25mm" fill="#ffffff" style="stroke:#ffffff;stroke-width:0.25mm;fill:#ffffff"><path d="M 78.601 53.001 L 78.601 19.201 L 87.601 19.201 L 87.601 51.801 A 22.981 22.981 0 0 0 87.855 55.335 Q 88.143 57.181 88.757 58.67 A 10.136 10.136 0 0 0 90.201 61.151 A 8.404 8.404 0 0 0 95.314 64.171 A 12.807 12.807 0 0 0 97.801 64.401 Q 101.901 64.401 105.751 62.751 Q 109.601 61.101 112.601 58.301 L 112.601 19.201 L 121.601 19.201 L 121.601 57.701 A 15.602 15.602 0 0 0 121.702 59.554 Q 122.034 62.317 123.451 63.351 Q 125.301 64.701 127.501 64.701 L 125.601 71.701 Q 116.301 71.701 114.101 64.301 Q 110.601 67.901 106.001 70.151 Q 101.401 72.401 96.101 72.401 Q 91.601 72.401 87.601 70.501 A 14.441 14.441 0 0 1 82.091 65.862 A 18.266 18.266 0 0 1 81.101 64.351 A 16.24 16.24 0 0 1 79.436 60.257 Q 78.601 57.105 78.601 53.001 Z M 348.201 68.701 L 339.501 72.201 L 331.701 52.201 L 299.301 52.201 L 291.501 72.001 L 283.401 68.701 L 310.801 1.201 L 321.201 1.201 L 348.201 68.701 Z M 368.101 93.201 L 359.101 93.201 L 359.101 32.501 A 11.015 11.015 0 0 0 358.974 30.765 Q 358.643 28.698 357.451 27.651 A 5.718 5.718 0 0 0 354.661 26.328 A 7.991 7.991 0 0 0 353.201 26.201 L 355.101 19.201 Q 360.962 19.201 364.023 22.164 A 10.15 10.15 0 0 1 366.601 26.501 Q 367.556 25.067 369.652 23.178 A 38.58 38.58 0 0 1 369.851 23.001 A 18.902 18.902 0 0 1 372.552 21.017 A 25.569 25.569 0 0 1 375.451 19.501 A 16.955 16.955 0 0 1 380.009 18.211 A 21.886 21.886 0 0 1 383.101 18.001 Q 389.101 18.001 394.351 21.151 A 22.329 22.329 0 0 1 401.529 28.118 A 27.464 27.464 0 0 1 402.801 30.251 Q 406.001 36.201 406.001 44.701 Q 406.001 53.001 402.801 59.251 A 27.846 27.846 0 0 1 398.867 65.082 A 23.029 23.029 0 0 1 394.451 68.951 Q 389.301 72.401 383.301 72.401 Q 378.701 72.401 374.701 70.551 A 30.352 30.352 0 0 1 371.284 68.712 Q 369.492 67.585 368.101 66.301 L 368.101 93.201 Z M 427.401 93.201 L 418.401 93.201 L 418.401 32.501 A 11.015 11.015 0 0 0 418.274 30.765 Q 417.943 28.698 416.751 27.651 A 5.718 5.718 0 0 0 413.961 26.328 A 7.991 7.991 0 0 0 412.501 26.201 L 414.401 19.201 Q 420.262 19.201 423.323 22.164 A 10.15 10.15 0 0 1 425.901 26.501 Q 426.856 25.067 428.952 23.178 A 38.58 38.58 0 0 1 429.151 23.001 A 18.902 18.902 0 0 1 431.852 21.017 A 25.569 25.569 0 0 1 434.751 19.501 A 16.955 16.955 0 0 1 439.309 18.211 A 21.886 21.886 0 0 1 442.401 18.001 Q 448.401 18.001 453.651 21.151 A 22.329 22.329 0 0 1 460.829 28.118 A 27.464 27.464 0 0 1 462.101 30.251 Q 465.301 36.201 465.301 44.701 Q 465.301 53.001 462.101 59.251 A 27.846 27.846 0 0 1 458.167 65.082 A 23.029 23.029 0 0 1 453.751 68.951 Q 448.601 72.401 442.601 72.401 Q 438.001 72.401 434.001 70.551 A 30.352 30.352 0 0 1 430.584 68.712 Q 428.792 67.585 427.401 66.301 L 427.401 93.201 Z M 57.701 59.601 L 66.601 64.501 L 62.301 72.401 L 52.601 65.201 A 31.258 31.258 0 0 1 46.61 69.114 A 37.52 37.52 0 0 1 43.901 70.351 A 27.019 27.019 0 0 1 37.287 72.088 A 35.306 35.306 0 0 1 32.501 72.401 A 34.822 34.822 0 0 1 24.652 71.548 A 28.732 28.732 0 0 1 18.851 69.551 Q 12.801 66.701 8.601 61.751 A 34.129 34.129 0 0 1 2.631 51.424 A 39.283 39.283 0 0 1 2.201 50.201 Q 0.001 43.601 0.001 36.101 A 46.749 46.749 0 0 1 1.101 25.764 A 38.315 38.315 0 0 1 3.901 17.651 Q 7.801 9.501 15.051 4.751 Q 22.301 0.001 32.501 0.001 A 35.418 35.418 0 0 1 40.35 0.838 A 29.08 29.08 0 0 1 46.151 2.801 Q 52.201 5.601 56.401 10.601 A 36 36 0 0 1 62.846 22.088 A 47.375 47.375 0 0 1 62.851 22.101 A 41.439 41.439 0 0 1 65.022 33.323 A 48.215 48.215 0 0 1 65.101 36.101 Q 65.101 43.352 63.199 48.832 A 27.738 27.738 0 0 1 62.901 49.651 Q 60.701 55.401 57.701 59.601 Z M 278.101 48.901 L 241.701 48.901 A 24.088 24.088 0 0 0 242.84 53.926 Q 244.176 57.738 246.801 60.301 Q 251.001 64.401 257.901 64.401 Q 262.401 64.401 266.001 63.451 Q 269.601 62.501 272.901 61.001 L 275.001 68.701 A 40.77 40.77 0 0 1 270.666 70.326 A 51.863 51.863 0 0 1 266.901 71.351 A 38.914 38.914 0 0 1 261.809 72.17 A 52.025 52.025 0 0 1 256.801 72.401 A 28.318 28.318 0 0 1 249.055 71.395 A 21.108 21.108 0 0 1 239.051 65.251 A 23.521 23.521 0 0 1 233.846 55.711 Q 232.501 51.046 232.501 45.201 A 35.359 35.359 0 0 1 233.333 37.379 A 28.84 28.84 0 0 1 235.451 31.251 A 24.642 24.642 0 0 1 240.467 24.169 A 22.887 22.887 0 0 1 243.701 21.551 A 21.048 21.048 0 0 1 253.96 18.079 A 26.205 26.205 0 0 1 256.001 18.001 Q 263.501 18.001 268.451 21.251 Q 273.401 24.501 275.901 30.001 A 28.185 28.185 0 0 1 278.327 39.864 A 33.434 33.434 0 0 1 278.401 42.101 A 75.204 75.204 0 0 1 278.11 48.797 A 69.426 69.426 0 0 1 278.101 48.901 Z M 200.301 53.301 L 200.301 28.901 L 191.301 28.901 L 191.301 21.101 L 200.501 21.101 L 202.401 4.701 L 209.301 4.701 L 209.301 21.101 L 223.701 21.101 L 223.701 28.901 L 209.301 28.901 L 209.301 54.001 A 21.559 21.559 0 0 0 209.468 56.797 Q 209.942 60.402 211.751 62.101 Q 214.201 64.401 217.601 64.401 Q 220.101 64.401 222.351 63.601 Q 224.601 62.801 226.501 61.701 L 229.001 68.901 A 18.546 18.546 0 0 1 227.382 69.757 Q 226.581 70.135 225.635 70.509 A 43.365 43.365 0 0 1 223.601 71.251 Q 220.201 72.401 216.501 72.401 Q 209.001 72.401 204.651 67.451 A 16.116 16.116 0 0 1 201.422 61.548 Q 200.66 59.118 200.416 56.181 A 34.777 34.777 0 0 1 200.301 53.301 Z M 45.501 60.701 L 37.901 55.901 L 41.901 48.601 L 50.901 55.101 Q 53.301 51.201 54.351 46.551 A 41.439 41.439 0 0 0 55.17 41.285 A 55.717 55.717 0 0 0 55.401 36.101 Q 55.401 30.701 53.851 25.701 A 29.647 29.647 0 0 0 50.066 17.754 A 27.805 27.805 0 0 0 49.351 16.751 Q 46.401 12.801 42.151 10.501 A 19.165 19.165 0 0 0 34.848 8.315 A 23.691 23.691 0 0 0 32.501 8.201 A 23.683 23.683 0 0 0 26.309 8.976 A 18.838 18.838 0 0 0 20.201 11.851 A 22.551 22.551 0 0 0 13.303 19.896 A 27.531 27.531 0 0 0 12.401 21.801 A 33.09 33.09 0 0 0 10.049 30.57 A 42.465 42.465 0 0 0 9.701 36.101 Q 9.701 41.501 11.201 46.551 A 30.102 30.102 0 0 0 14.729 54.325 A 27.976 27.976 0 0 0 15.601 55.601 Q 18.501 59.601 22.701 61.901 A 18.74 18.74 0 0 0 29.676 64.057 A 23.421 23.421 0 0 0 32.301 64.201 A 29.177 29.177 0 0 0 36.445 63.918 A 22.935 22.935 0 0 0 39.751 63.201 A 27.908 27.908 0 0 0 42.683 62.153 Q 44.177 61.518 45.421 60.75 A 17.361 17.361 0 0 0 45.501 60.701 Z M 147.101 68.951 A 24.559 24.559 0 0 0 151.699 71.04 Q 155.754 72.401 160.401 72.401 Q 167.801 72.401 173.651 69.001 Q 179.501 65.601 182.901 59.451 A 26.255 26.255 0 0 0 185.554 52.309 A 34.184 34.184 0 0 0 186.301 45.001 A 34.542 34.542 0 0 0 185.816 39.092 A 25.795 25.795 0 0 0 182.851 30.651 Q 179.401 24.601 173.551 21.301 A 24.848 24.848 0 0 0 168.909 19.274 A 27.738 27.738 0 0 0 160.401 18.001 A 31.325 31.325 0 0 0 158.821 18.04 A 26.169 26.169 0 0 0 147.201 21.301 Q 141.301 24.601 137.901 30.701 A 26.023 26.023 0 0 0 135.151 38.291 A 35.006 35.006 0 0 0 134.501 45.201 A 34.82 34.82 0 0 0 134.766 49.554 A 27.451 27.451 0 0 0 137.851 59.351 Q 141.201 65.501 147.101 68.951 Z M 160.401 64.401 Q 168.301 64.401 172.701 59.051 A 18.802 18.802 0 0 0 176.52 50.961 A 27.105 27.105 0 0 0 177.101 45.201 Q 177.101 40.001 174.901 35.651 A 19.198 19.198 0 0 0 170.729 30.082 A 18.17 18.17 0 0 0 168.951 28.651 Q 165.201 26.001 160.401 26.001 A 19.249 19.249 0 0 0 155.175 26.672 A 14.037 14.037 0 0 0 148.101 31.201 A 17.878 17.878 0 0 0 144.427 38.574 Q 143.701 41.507 143.701 45.001 Q 143.701 50.201 145.901 54.651 A 19.437 19.437 0 0 0 149.431 59.69 A 17.627 17.627 0 0 0 151.851 61.751 Q 155.601 64.401 160.401 64.401 Z M 368.101 32.601 L 368.101 58.201 Q 370.701 60.901 374.101 62.651 Q 377.501 64.401 381.501 64.401 Q 388.194 64.401 392.417 59.216 A 17.38 17.38 0 0 0 392.551 59.051 A 18.792 18.792 0 0 0 396.044 51.745 Q 396.706 49.055 396.789 45.909 A 34.555 34.555 0 0 0 396.801 45.001 Q 396.801 39.001 394.651 34.701 Q 392.501 30.401 388.951 28.101 Q 385.401 25.801 381.101 25.801 A 14.741 14.741 0 0 0 375.474 26.863 A 14.054 14.054 0 0 0 373.351 27.951 Q 369.901 30.101 368.101 32.601 Z M 427.401 32.601 L 427.401 58.201 Q 430.001 60.901 433.401 62.651 Q 436.801 64.401 440.801 64.401 Q 447.494 64.401 451.717 59.216 A 17.38 17.38 0 0 0 451.851 59.051 A 18.792 18.792 0 0 0 455.344 51.745 Q 456.006 49.055 456.089 45.909 A 34.555 34.555 0 0 0 456.101 45.001 Q 456.101 39.001 453.951 34.701 Q 451.801 30.401 448.251 28.101 Q 444.701 25.801 440.401 25.801 A 14.741 14.741 0 0 0 434.774 26.863 A 14.054 14.054 0 0 0 432.651 27.951 Q 429.201 30.101 427.401 32.601 Z M 315.501 10.601 L 302.301 44.201 L 328.601 44.201 L 315.501 10.601 Z M 241.601 41.601 L 270.101 41.601 A 24.355 24.355 0 0 0 269.696 37.015 Q 269.201 34.431 268.096 32.407 A 12.422 12.422 0 0 0 266.301 29.901 A 12.488 12.488 0 0 0 259.34 26.125 A 18.395 18.395 0 0 0 255.801 25.801 A 13.58 13.58 0 0 0 250.689 26.735 A 12.524 12.524 0 0 0 246.201 29.851 Q 242.401 33.901 241.601 41.601 Z" vector-effect="non-scaling-stroke"/></g></svg>